<?xml version="1.0" standalone="no"?>
<!DOCTYPE svg PUBLIC "-//W3C//DTD SVG 20010904//EN"
 "http://www.w3.org/TR/2001/REC-SVG-20010904/DTD/svg10.dtd">
<svg version="1.0" xmlns="http://www.w3.org/2000/svg"
 width="512.000000pt" height="512.000000pt" viewBox="0 0 512.000000 512.000000"
 preserveAspectRatio="xMidYMid meet">

<g transform="translate(0.000000,512.000000) scale(0.100000,-0.100000)"
fill="#000000" stroke="none">
<path d="M3125 4977 c-22 -8 -51 -19 -65 -26 -14 -7 -522 -510 -1130 -1117
l-1105 -1103 -295 -3 c-294 -3 -295 -3 -350 -29 -66 -31 -118 -82 -151 -146
-24 -47 -24 -52 -27 -353 -3 -365 -6 -353 106 -389 88 -27 168 -85 215 -153
55 -80 70 -130 71 -233 1 -81 -2 -97 -30 -156 -55 -115 -144 -194 -256 -225
-40 -12 -66 -26 -84 -47 l-25 -30 3 -306 c3 -286 4 -309 24 -352 32 -68 82
-119 149 -151 l60 -28 2325 0 2325 0 60 28 c67 32 117 83 149 151 20 43 21 66
24 352 l3 306 -25 30 c-18 21 -44 35 -84 47 -112 31 -201 110 -256 225 -28 59
-31 75 -30 156 1 103 16 153 71 233 47 68 127 126 215 153 112 36 109 24 106
389 -3 301 -3 306 -27 353 -34 65 -85 115 -151 146 -52 24 -66 26 -243 29
l-188 4 184 187 c161 164 187 194 206 244 27 74 27 150 -1 224 -19 52 -44 81
-226 265 -143 145 -215 211 -240 219 -31 10 -41 8 -115 -27 -218 -102 -451
-24 -551 186 -28 59 -31 74 -31 165 0 95 2 104 38 179 41 86 44 104 23 144 -8
15 -104 116 -214 225 -148 145 -213 203 -248 219 -59 25 -155 32 -209 15z
m294 -361 l164 -164 -22 -69 c-94 -279 37 -592 300 -720 46 -23 109 -47 140
-54 85 -18 250 -7 323 21 l59 23 168 -170 c161 -161 169 -171 169 -208 0 -38
-9 -48 -252 -292 l-252 -253 -139 0 -139 0 36 40 c44 49 48 95 11 155 -31 50
-32 91 -1 136 24 35 29 54 27 99 -1 18 -111 135 -433 458 -238 238 -445 440
-460 448 -40 21 -79 17 -122 -12 -22 -15 -52 -26 -71 -26 -19 0 -49 11 -71 26
-24 16 -52 26 -74 26 -33 0 -73 -39 -710 -675 l-675 -675 -145 0 -145 0 1010
1011 c556 556 1024 1020 1040 1030 60 40 82 27 264 -155z m-534 -785 c38 -6
92 -1 145 13 23 6 60 -29 389 -358 l365 -365 -12 -39 c-15 -51 -15 -120 0
-177 l12 -45 -64 -65 -64 -65 -425 0 -424 0 106 109 c104 107 112 120 108 176
-3 34 -57 75 -98 75 -34 0 -49 -12 -218 -180 l-181 -180 -424 0 -425 0 560
560 c508 509 562 560 585 554 14 -4 43 -10 65 -13z m-2025 -1462 c0 -98 4
-169 11 -182 39 -75 139 -75 178 0 7 13 11 84 11 182 l0 161 1500 0 1500 0 0
-161 c0 -98 4 -169 11 -182 39 -75 139 -75 178 0 7 13 11 84 11 183 l0 161
300 -3 300 -3 27 -28 28 -27 3 -238 3 -239 -43 -18 c-72 -31 -165 -103 -217
-166 -194 -241 -182 -578 29 -795 60 -62 93 -87 168 -124 l62 -31 0 -225 c0
-234 -3 -253 -44 -286 -19 -16 -52 -18 -318 -18 l-297 0 -3 170 c-3 168 -3
170 -30 196 -37 37 -99 37 -136 0 -27 -26 -27 -28 -30 -196 l-3 -170 -1499 0
-1499 0 -3 170 c-3 168 -3 170 -30 196 -37 37 -99 37 -136 0 -27 -26 -27 -28
-30 -196 l-3 -170 -297 0 c-266 0 -299 2 -318 18 -41 33 -44 52 -44 286 l0
225 62 31 c349 173 443 614 197 919 -52 63 -145 135 -217 166 l-43 18 3 238
c3 234 3 238 27 263 13 14 33 27 45 29 11 2 148 5 304 6 l282 1 0 -161z"/>
<path d="M3139 3341 c-82 -82 28 -209 126 -145 36 23 49 74 31 117 -27 65
-106 79 -157 28z"/>
<path d="M1535 2323 c-32 -8 -63 -43 -70 -77 -16 -82 -40 -108 -112 -120 -24
-5 -50 -18 -64 -32 l-24 -26 -3 -626 c-2 -447 1 -635 9 -654 14 -34 43 -53 94
-62 51 -10 83 -39 91 -85 9 -47 21 -72 48 -93 20 -16 90 -18 1056 -18 966 0
1036 2 1056 18 27 21 39 46 48 93 8 46 40 75 91 85 51 9 80 28 94 62 8 19 11
207 9 654 l-3 626 -24 26 c-14 14 -40 27 -64 32 -72 12 -96 38 -112 120 -3 17
-17 42 -31 55 l-26 24 -1021 1 c-562 1 -1031 0 -1042 -3z m1957 -227 c25 -51
72 -100 123 -127 l45 -24 0 -517 0 -518 -37 -19 c-49 -25 -100 -75 -124 -123
l-19 -38 -920 0 -920 0 -19 38 c-24 48 -75 98 -123 123 l-38 19 0 518 0 517
45 24 c51 27 98 76 123 127 l16 34 916 0 916 0 16 -34z"/>
<path d="M2506 1919 c-15 -12 -55 -77 -91 -148 l-63 -127 -117 -54 c-132 -61
-165 -91 -165 -149 0 -53 25 -75 168 -145 l119 -59 59 -119 c32 -66 69 -130
82 -143 29 -29 69 -37 109 -20 28 12 42 33 99 148 l67 134 130 64 c71 35 136
74 144 86 24 36 19 91 -11 122 -14 14 -79 53 -144 85 l-119 59 -59 120 c-33
66 -72 130 -87 143 -36 30 -85 31 -121 3z m94 -367 c20 -37 38 -54 84 -78 l60
-32 -61 -30 c-51 -26 -64 -39 -89 -86 l-28 -54 -31 56 c-25 45 -42 62 -87 87
l-56 31 56 29 c47 25 62 40 85 83 16 29 32 51 35 47 4 -3 18 -27 32 -53z"/>
<path d="M934 1923 c-12 -2 -32 -15 -45 -29 -22 -23 -24 -35 -27 -146 -4 -139
0 -161 35 -194 51 -47 141 -19 158 49 4 14 5 80 3 146 -3 113 -4 122 -28 145
-26 25 -61 35 -96 29z"/>
<path d="M4134 1923 c-12 -2 -32 -15 -45 -29 -22 -23 -24 -35 -27 -146 -4
-139 0 -161 35 -194 51 -47 141 -19 158 49 4 14 5 80 3 146 -3 113 -4 122 -28
145 -26 25 -61 35 -96 29z"/>
<path d="M934 1323 c-12 -2 -32 -15 -45 -29 -22 -23 -24 -35 -27 -146 -4 -139
0 -161 35 -194 51 -47 141 -19 158 49 4 14 5 80 3 146 -3 113 -4 122 -28 145
-26 25 -61 35 -96 29z"/>
<path d="M4134 1323 c-12 -2 -32 -15 -45 -29 -22 -23 -24 -35 -27 -146 -4
-139 0 -161 35 -194 51 -47 141 -19 158 49 4 14 5 80 3 146 -3 113 -4 122 -28
145 -26 25 -61 35 -96 29z"/>
</g>
</svg>
