<?xml version="1.0" standalone="no"?>
<!DOCTYPE svg PUBLIC "-//W3C//DTD SVG 20010904//EN"
 "http://www.w3.org/TR/2001/REC-SVG-20010904/DTD/svg10.dtd">
<svg version="1.0" xmlns="http://www.w3.org/2000/svg"
 width="512.000000pt" height="512.000000pt" viewBox="0 0 512.000000 512.000000"
 preserveAspectRatio="xMidYMid meet">

<g transform="translate(0.000000,512.000000) scale(0.100000,-0.100000)"
fill="#000000" stroke="none">
<path d="M4280 1633 c0 -236 -9 -243 -299 -243 l-191 0 -6 -25 c-9 -36 -59
-75 -97 -75 -46 0 -96 34 -104 70 l-5 30 -119 0 -119 0 0 -140 c0 -158 8 -187
63 -220 31 -19 54 -20 590 -20 615 0 609 -1 647 62 19 31 20 50 20 323 0 273
-1 292 -20 323 -32 51 -70 62 -225 62 l-135 0 0 -147z"/>
</g>
</svg>
