<?xml version="1.0" standalone="no"?>
<!DOCTYPE svg PUBLIC "-//W3C//DTD SVG 20010904//EN"
 "http://www.w3.org/TR/2001/REC-SVG-20010904/DTD/svg10.dtd">
<svg version="1.0" xmlns="http://www.w3.org/2000/svg"
 width="512.000000pt" height="512.000000pt" viewBox="0 0 512.000000 512.000000"
 preserveAspectRatio="xMidYMid meet">

<g transform="translate(0.000000,512.000000) scale(0.100000,-0.100000)"
fill="#000000" stroke="none">
<path d="M1484 5086 c-25 -25 -34 -43 -34 -67 0 -30 20 -54 198 -231 184 -185
200 -198 234 -198 25 0 46 8 67 26 26 22 31 33 31 72 l0 46 -177 179 c-98 98
-190 185 -205 193 -44 23 -77 17 -114 -20z"/>
<path d="M3505 5101 c-16 -10 -108 -97 -202 -193 l-173 -174 0 -46 c0 -39 5
-50 31 -72 20 -18 42 -26 67 -26 33 0 50 14 231 195 191 190 196 195 196 236
0 34 -6 46 -33 70 -38 34 -74 37 -117 10z"/>
<path d="M2466 4927 c-71 -41 -88 -74 -180 -359 l-87 -268 -292 0 c-284 0
-294 -1 -337 -22 -112 -57 -144 -212 -64 -307 13 -16 125 -101 248 -191 l224
-162 -13 -41 c-130 -395 -165 -509 -165 -529 0 -108 99 -208 205 -208 61 0
104 25 328 189 114 83 213 154 220 157 7 2 110 -66 228 -152 232 -170 273
-194 334 -194 106 0 205 100 205 208 0 13 -36 135 -80 270 -45 136 -85 259
-90 274 -8 25 -1 31 215 187 123 89 235 175 248 191 81 96 49 251 -63 308 -43
21 -53 22 -337 22 l-292 0 -88 271 c-95 293 -116 333 -190 364 -53 22 -131 19
-177 -8z m188 -454 c99 -311 110 -339 140 -356 15 -8 117 -13 343 -17 l323 -5
-259 -188 c-220 -158 -261 -192 -271 -221 -10 -32 -3 -59 89 -337 55 -167 99
-304 97 -306 -2 -2 -117 80 -257 182 -140 102 -265 189 -278 192 -14 3 -36 2
-50 -4 -14 -5 -138 -91 -275 -192 -137 -100 -250 -180 -252 -178 -2 1 42 140
97 308 99 297 101 305 87 339 -12 28 -64 71 -272 220 l-256 185 322 5 c227 4
329 9 344 17 30 17 41 45 140 356 49 152 91 277 94 277 3 0 45 -125 94 -277z"/>
<path d="M1305 3465 c-110 -53 -210 -107 -222 -121 -25 -27 -31 -81 -13 -115
12 -22 60 -49 87 -49 31 0 417 189 441 216 24 27 30 81 12 115 -12 22 -60 49
-87 49 -10 0 -108 -43 -218 -95z"/>
<path d="M3548 3544 c-15 -8 -32 -23 -38 -34 -18 -33 -12 -87 13 -114 23 -27
409 -216 440 -216 27 0 75 27 87 49 18 34 12 88 -12 115 -26 28 -412 216 -443
216 -11 -1 -32 -7 -47 -16z"/>
<path d="M1301 2626 c-47 -26 -63 -84 -37 -135 21 -39 56 -51 151 -51 l85 0 0
-280 0 -280 -710 0 c-528 0 -716 -3 -735 -12 -57 -26 -55 7 -55 -928 0 -935
-2 -902 55 -928 38 -17 4972 -17 5010 0 57 26 55 -7 55 928 0 935 2 902 -55
928 -19 9 -207 12 -735 12 l-710 0 0 280 0 280 85 0 c55 0 96 5 114 14 66 35
66 137 0 172 -40 20 -2481 21 -2518 0z m2119 -721 c0 -393 3 -541 12 -560 22
-49 85 -68 137 -41 44 23 51 53 51 221 l0 155 650 0 650 0 0 -740 0 -740 -650
0 -650 0 0 155 c0 168 -7 198 -51 221 -34 17 -60 18 -94 2 -47 -21 -55 -52
-55 -223 l0 -155 -860 0 -860 0 0 1120 0 1120 860 0 860 0 0 -535z m-1920
-965 l0 -740 -650 0 -650 0 0 740 0 740 650 0 650 0 0 -740z"/>
<path d="M2424 1850 c-56 -23 -72 -108 -30 -156 20 -24 32 -28 90 -32 l66 -4
0 -389 c0 -422 2 -440 54 -474 36 -24 94 -14 124 20 l22 26 0 479 0 479 -24
28 c-24 28 -26 28 -153 30 -70 2 -138 -2 -149 -7z"/>
<path d="M3471 1026 c-87 -48 -50 -186 49 -186 51 0 100 49 100 99 0 75 -83
124 -149 87z"/>
</g>
</svg>
